# xmcd
#
# Track frame offsets:
#	200
#	16377
#	30850
#	42212
#	56552
#	69870
#	87950
#	98585
#	110812
#	122782
#	138577
#	157710
#
# Disc length: 2249 seconds
#
# Revision: 0
# Processed by: cddbd v1.4PL0 Copyright (c) Steve Scherf et al.
# Submitted via: dBpowerAMP V4.0
#
DISCID=8e08c70c
DTITLE=Rhonda Vincent - Timeless And True Love
DYEAR=1900
DGENRE=Country
TTITLE0=Birmingham Turnaround
TTITLE1=Midnight Angel
TTITLE2=Lucinda
TTITLE3=I'm Not That Lonely Yet
TTITLE4=I Do My Cryin' At Night
TTITLE5=Homecoming
TTITLE6=Moving On
TTITLE7=Timeless And True Love
TTITLE8=Bobby And Sarah
TTITLE9=Let's Put Love Back To Work
TTITLE10=Artificial Tears
TTITLE11=Cherry Jubilee
EXTD=
EXTT0=
EXTT1=
EXTT2=
EXTT3=
EXTT4=
EXTT5=
EXTT6=
EXTT7=
EXTT8=
EXTT9=
EXTT10=
EXTT11=
PLAYORDER=
